<svg width="64" height="64" viewBox="0 0 64 64" xmlns="http://www.w3.org/2000/svg">
  <rect width="64" height="64" rx="12" fill="#0B1F17"/>
  <g transform="translate(32,34)">
    <path d="M -9 -13
             L -9 -3
             C -9 5, -4.5 9, 0 9
             C 4.5 9, 9 5, 9 -3
             L 9 -13
             Z"
          fill="#7FE0B5"/>

    <path d="M -9 -9
             C -15 -9, -16 -2, -11 2
             C -9 3.5, -7.5 3, -8 0.5"
          fill="none" stroke="#7FE0B5" stroke-width="2.2" stroke-linecap="round"/>

    <path d="M 9 -9
             C 15 -9, 16 -2, 11 2
             C 9 3.5, 7.5 3, 8 0.5"
          fill="none" stroke="#7FE0B5" stroke-width="2.2" stroke-linecap="round"/>

    <rect x="-2.2" y="9" width="4.4" height="5.5" fill="#7FE0B5"/>
    <rect x="-7.5" y="14" width="15" height="3" rx="1" fill="#7FE0B5"/>
  </g>
  <path d="M32 8 L33.8 11.8 L38 12.4 L35 15.3 L35.7 19.5 L32 17.5 L28.3 19.5 L29 15.3 L26 12.4 L30.2 11.8 Z"
        fill="#FF4D2E"/>
</svg>
